<svg width="35" height="49" viewBox="0 0 35 49" fill="none" xmlns="http://www.w3.org/2000/svg">
<path d="M31.3682 46.3927C28.9864 45.6457 26.7039 44.9194 24.4203 44.2023C23.9656 44.0572 23.6446 43.9554 23.0447 43.8675C22.5998 43.7975 21.6532 43.6695 21.6794 44.1625C21.7435 44.5674 21.8406 44.8467 22.6068 45.1757C24.5896 46.0152 26.6813 46.5531 28.7537 47.0979C30.584 47.5777 31.987 47.9157 33.6314 48.2446C34.3994 48.3982 34.7539 48.0509 34.745 47.3288C34.7368 46.6808 34.7398 46.0155 34.6098 45.3811C34.1537 43.0912 33.6397 40.8224 33.146 38.5374C33.0864 38.2532 33.057 38.0279 32.9378 37.6998C32.7895 37.3036 32.7037 37.0071 32.2987 37.0712C31.9131 37.1283 31.868 37.6777 31.9002 37.9588C32.1178 40.3135 32.6475 45.1633 32.6169 45.4279C31.5105 44.5234 30.4677 43.7094 29.4687 42.8358C22.5406 36.7188 16.1073 30.1598 11.3113 22.1541C7.51475 15.817 4.53407 9.1398 2.58578 2.00891C2.46801 1.58854 2.3127 1.17306 2.15529 0.775838C1.94984 0.234388 1.74712 -0.0109298 1.45973 0.075999C0.942483 0.311975 0.988324 0.714783 0.996997 1.03934C1.00522 1.68739 1.15133 2.34215 1.29043 2.97761C3.23972 11.4583 7.01201 19.1237 11.8086 26.3253C16.7311 33.7171 23.101 39.7048 30.0027 45.1717C30.3777 45.4461 31.2413 46.2116 31.3682 46.3927Z" fill="#2165E3"/>
</svg>