<svg width="94" height="28" viewBox="0 0 94 28" fill="none" xmlns="http://www.w3.org/2000/svg">
<g clip-path="url(#clip0_954_789)">
<path d="M0.046875 19.7867V0.454956H3.51557V19.7867H0.046875Z" fill="#E1E1E6"/>
<path d="M12.3946 5.76221C7.94723 5.76221 4.86963 9.10982 4.86963 12.9415C4.86963 17.2179 8.21771 20.1638 12.4291 20.1638C16.426 20.1638 19.8943 17.2721 19.8943 12.9323C19.8943 9.28288 17.0203 5.76221 12.3946 5.76221ZM12.3537 9.03811C14.6811 9.03811 16.3942 10.8117 16.3942 12.9538C16.3942 15.225 14.5055 16.8818 12.4165 16.8818C9.94824 16.8818 8.39487 14.9665 8.39487 12.96C8.39487 10.7605 10.1487 9.03811 12.3537 9.03811Z" fill="#E1E1E6"/>
<path d="M28.6094 5.76221C24.1621 5.76221 21.0845 9.10982 21.0845 12.9415C21.0845 17.2179 24.4326 20.1638 28.644 20.1638C32.6408 20.1638 36.1092 17.2721 36.1092 12.9323C36.1092 10.3766 34.9787 9.24272 34.9787 9.24272L35.9401 8.91995V6.16389H31.0136C31.0136 6.16389 29.9456 5.76221 28.6094 5.76221ZM28.5685 9.03811C30.896 9.03811 32.6091 10.8117 32.6091 12.9538C32.6091 15.225 30.7203 16.8818 28.6314 16.8818C26.1631 16.8818 24.6097 14.9665 24.6097 12.96C24.6097 10.7605 26.3635 9.03811 28.5685 9.03811Z" fill="#E1E1E6"/>
<path d="M32.5847 20.7317C32.5847 23.0029 30.6959 24.672 28.607 24.672C26.1387 24.672 24.579 22.7383 24.579 20.7317H21.0601C21.0601 25.0081 24.4081 27.954 28.6195 27.954C32.6164 27.954 36.0848 25.0715 36.0848 20.7317H32.5847Z" fill="#E1E1E6"/>
<path d="M37.4985 19.7868V6.16394H40.9672V19.7868H37.4985Z" fill="#E1E1E6"/>
<path d="M44.3356 19.7867V9.21525H42.4756V6.16389H44.3356V1.98059H47.8043V6.16389H49.7146V9.21525H47.8043V19.7867H44.3356Z" fill="#E1E1E6"/>
<path d="M41.5226 2.29475C41.5226 3.53669 40.4942 4.54348 39.2257 4.54348C37.9571 4.54348 36.9287 3.53669 36.9287 2.29475C36.9287 1.05281 37.9571 0.0460205 39.2257 0.0460205C40.4942 0.0460205 41.5226 1.05281 41.5226 2.29475Z" fill="#E1E1E6"/>
<path d="M57.5126 5.75293C53.0442 5.75293 50.1636 9.1023 50.1636 13.0645C50.1636 17.159 53.0538 20.173 57.5848 20.173C61.8115 20.173 63.8907 17.5892 63.8907 17.5892L61.5719 15.3161C61.5719 15.3161 59.8212 17.1647 57.6288 17.1647C55.8012 17.1647 54.34 16.1661 53.8302 14.3349H64.6384V13.3998C64.6384 9.66862 62.4325 5.75293 57.5126 5.75293ZM57.4026 8.74276C59.0005 8.74276 60.6346 9.57967 61.0001 11.5788H53.7359C54.0237 10.1735 55.2794 8.74276 57.4026 8.74276Z" fill="#E1E1E6"/>
<path d="M73.3151 20.1748C68.8341 20.1748 65.7808 16.8336 65.7808 12.894C65.7808 8.82839 69.2315 5.75037 73.3007 5.75037C77.2344 5.75037 79.2479 8.46902 79.2479 8.46902L76.8282 10.8272C76.8282 10.8272 75.4266 9.05421 73.2842 9.05421C70.9098 9.05421 69.2863 10.8324 69.2863 12.9461C69.2863 15.178 71.0133 16.8903 73.2575 16.8903C75.4343 16.8903 76.8248 15.1202 76.8248 15.1202L79.2688 17.4771C79.2688 17.4771 77.2748 20.1748 73.3151 20.1748Z" fill="#E1E1E6"/>
<path d="M80.5308 19.7965V0.40564H83.9995V7.52993C83.9995 7.52993 85.3276 5.75035 88.2168 5.75035C91.8489 5.75035 93.9531 8.39366 93.9531 11.7744V19.7965H90.4844V12.2876C90.4844 10.0164 89.04 9.07412 87.4399 9.07412C85.6169 9.07412 83.9995 10.0898 83.9995 12.4634V19.7965H80.5308Z" fill="#E1E1E6"/>
</g>
<defs>
<clipPath id="clip0_954_789">
<rect width="94" height="28" fill="white"/>
</clipPath>
</defs>
</svg>