 <svg width="24" height="24" viewBox="0 0 24 24" fill="none" xmlns="http://www.w3.org/2000/svg">
    <path d="M19.9879 21.6662H4.01295C3.64264 21.6662 3.27232 21.5725 2.94889 21.399C2.4192 21.1131 2.03482 20.6397 1.86139 20.0631C1.68795 19.4865 1.74889 18.8771 2.03482 18.3521L10.0176 3.51621C10.4114 2.78496 11.1708 2.33496 12.0004 2.33496C12.8301 2.33496 13.5895 2.78965 13.9833 3.51621L21.9708 18.3521C22.1489 18.6803 22.2379 19.0459 22.2379 19.4209C22.2379 20.0209 22.0036 20.5881 21.577 21.01C21.1551 21.4365 20.5926 21.6662 19.9879 21.6662ZM4.01295 20.1662H19.9926C20.1942 20.1662 20.3817 20.0865 20.5223 19.9459C20.663 19.8053 20.7426 19.6178 20.7426 19.4162C20.7426 19.2943 20.7098 19.1678 20.6536 19.06L12.6614 4.22871C12.4692 3.87246 12.1364 3.83496 12.0004 3.83496C11.8645 3.83496 11.5317 3.87246 11.3395 4.22871L3.35201 19.0646C3.25826 19.2428 3.23482 19.4443 3.29576 19.6365C3.35201 19.8287 3.48326 19.9881 3.6567 20.0818C3.76451 20.1381 3.88639 20.1662 4.01295 20.1662Z" fill="#FBA94C"/>
    <path d="M12.0005 15.6285C11.602 15.6285 11.2692 15.3145 11.2505 14.916L10.9833 9.19728C10.9833 9.19259 10.9833 9.1879 10.9833 9.18321V9.15978C10.9786 8.59728 11.4286 8.1379 11.9911 8.13321C12.0098 8.13321 12.0286 8.13321 12.0473 8.13321C12.6098 8.15665 13.0458 8.63478 13.0176 9.19728L12.7505 14.916C12.7317 15.3145 12.3989 15.6285 12.0005 15.6285Z" fill="#FBA94C"/>
    <path d="M12.0004 18.619C11.4848 18.619 11.0629 18.1971 11.0629 17.6815C11.0629 17.1659 11.4848 16.744 12.0004 16.744C12.516 16.744 12.9379 17.1659 12.9379 17.6815C12.9379 18.1971 12.516 18.619 12.0004 18.619Z" fill="#FBA94C"/>
</svg>